<svg xmlns="http://www.w3.org/2000/svg" width="100%" viewBox="0 0 432 372"
     preserveAspectRatio="xMidYMid meet" role="img" aria-label="FastAPI-Template: Organização modular, configuração por ambiente e docker-compose pronto pra subir.">
  
  <rect x="0.75" y="0.75" width="430.5" height="370.5" fill="#EFE8DA" stroke="#17150F" stroke-width="1.5"/>
  <clipPath id="artfastapitemplate"><rect x="24" y="24" width="384" height="110"/></clipPath>
  <g clip-path="url(#artfastapitemplate)">
    <g transform="rotate(35 216.0 79.0)"><path d="M-12,-182.3 -4,-178.6 4,-174.6 12,-170.9 20,-168.0 28,-166.2 36,-165.7 44,-166.7 52,-169.0 60,-172.3 68,-176.1 76,-180.0 84,-183.5 92,-186.2 100,-187.5 108,-187.5 116,-186.1 124,-183.5 132,-180.0 140,-176.1 148,-172.2 156,-169.0 164,-166.7 172,-165.7 180,-166.2 188,-168.0 196,-170.9 204,-174.6 212,-178.6 220,-182.3 228,-185.3 236,-187.2 244,-187.7 252,-186.8 260,-184.6 268,-181.4 276,-177.6 284,-173.6 292,-170.1 300,-167.4 308,-165.9 316,-165.9 324,-167.2 332,-169.7 340,-173.2 348,-177.1 356,-181.0 364,-184.3 372,-186.6 380,-187.7 388,-187.3 396,-185.6 404,-182.7 412,-179.1 420,-175.1 428,-171.4 436,-168.3 444,-166.3 444,-152.3 436,-154.3 428,-157.4 420,-161.1 412,-165.1 404,-168.7 396,-171.6 388,-173.3 380,-173.7 372,-172.6 364,-170.3 356,-167.0 348,-163.1 340,-159.2 332,-155.7 324,-153.2 316,-151.9 308,-151.9 300,-153.4 292,-156.1 284,-159.6 276,-163.6 268,-167.4 260,-170.6 252,-172.8 244,-173.7 236,-173.2 228,-171.3 220,-168.3 212,-164.6 204,-160.6 196,-156.9 188,-154.0 180,-152.2 172,-151.7 164,-152.7 156,-155.0 148,-158.2 140,-162.1 132,-166.0 124,-169.5 116,-172.1 108,-173.5 100,-173.5 92,-172.2 84,-169.5 76,-166.0 68,-162.1 60,-158.3 52,-155.0 44,-152.7 36,-151.7 28,-152.2 20,-154.0 12,-156.9 4,-160.6 -4,-164.6 -12,-168.3Z" fill="#17150F"/><path d="M-12,-154.3 -4,-150.6 4,-146.6 12,-142.9 20,-140.0 28,-138.2 36,-137.7 44,-138.7 52,-141.0 60,-144.3 68,-148.1 76,-152.0 84,-155.5 92,-158.2 100,-159.5 108,-159.5 116,-158.1 124,-155.5 132,-152.0 140,-148.1 148,-144.2 156,-141.0 164,-138.7 172,-137.7 180,-138.2 188,-140.0 196,-142.9 204,-146.6 212,-150.6 220,-154.3 228,-157.3 236,-159.2 244,-159.7 252,-158.8 260,-156.6 268,-153.4 276,-149.6 284,-145.6 292,-142.1 300,-139.4 308,-137.9 316,-137.9 324,-139.2 332,-141.7 340,-145.2 348,-149.1 356,-153.0 364,-156.3 372,-158.6 380,-159.7 388,-159.3 396,-157.6 404,-154.7 412,-151.1 420,-147.1 428,-143.4 436,-140.3 444,-138.3 444,-124.3 436,-126.3 428,-129.4 420,-133.1 412,-137.1 404,-140.7 396,-143.6 388,-145.3 380,-145.7 372,-144.6 364,-142.3 356,-139.0 348,-135.1 340,-131.2 332,-127.7 324,-125.2 316,-123.9 308,-123.9 300,-125.4 292,-128.1 284,-131.6 276,-135.6 268,-139.4 260,-142.6 252,-144.8 244,-145.7 236,-145.2 228,-143.3 220,-140.3 212,-136.6 204,-132.6 196,-128.9 188,-126.0 180,-124.2 172,-123.7 164,-124.7 156,-127.0 148,-130.2 140,-134.1 132,-138.0 124,-141.5 116,-144.1 108,-145.5 100,-145.5 92,-144.2 84,-141.5 76,-138.0 68,-134.1 60,-130.3 52,-127.0 44,-124.7 36,-123.7 28,-124.2 20,-126.0 12,-128.9 4,-132.6 -4,-136.6 -12,-140.3Z" fill="#17150F"/><path d="M-12,-126.3 -4,-122.6 4,-118.6 12,-114.9 20,-112.0 28,-110.2 36,-109.7 44,-110.7 52,-113.0 60,-116.3 68,-120.1 76,-124.0 84,-127.5 92,-130.2 100,-131.5 108,-131.5 116,-130.1 124,-127.5 132,-124.0 140,-120.1 148,-116.2 156,-113.0 164,-110.7 172,-109.7 180,-110.2 188,-112.0 196,-114.9 204,-118.6 212,-122.6 220,-126.3 228,-129.3 236,-131.2 244,-131.7 252,-130.8 260,-128.6 268,-125.4 276,-121.6 284,-117.6 292,-114.1 300,-111.4 308,-109.9 316,-109.9 324,-111.2 332,-113.7 340,-117.2 348,-121.1 356,-125.0 364,-128.3 372,-130.6 380,-131.7 388,-131.3 396,-129.6 404,-126.7 412,-123.1 420,-119.1 428,-115.4 436,-112.3 444,-110.3 444,-96.3 436,-98.3 428,-101.4 420,-105.1 412,-109.1 404,-112.7 396,-115.6 388,-117.3 380,-117.7 372,-116.6 364,-114.3 356,-111.0 348,-107.1 340,-103.2 332,-99.7 324,-97.2 316,-95.9 308,-95.9 300,-97.4 292,-100.1 284,-103.6 276,-107.6 268,-111.4 260,-114.6 252,-116.8 244,-117.7 236,-117.2 228,-115.3 220,-112.3 212,-108.6 204,-104.6 196,-100.9 188,-98.0 180,-96.2 172,-95.7 164,-96.7 156,-99.0 148,-102.2 140,-106.1 132,-110.0 124,-113.5 116,-116.1 108,-117.5 100,-117.5 92,-116.2 84,-113.5 76,-110.0 68,-106.1 60,-102.3 52,-99.0 44,-96.7 36,-95.7 28,-96.2 20,-98.0 12,-100.9 4,-104.6 -4,-108.6 -12,-112.3Z" fill="#17150F"/><path d="M-12,-98.3 -4,-94.6 4,-90.6 12,-86.9 20,-84.0 28,-82.2 36,-81.7 44,-82.7 52,-85.0 60,-88.3 68,-92.1 76,-96.0 84,-99.5 92,-102.2 100,-103.5 108,-103.5 116,-102.1 124,-99.5 132,-96.0 140,-92.1 148,-88.2 156,-85.0 164,-82.7 172,-81.7 180,-82.2 188,-84.0 196,-86.9 204,-90.6 212,-94.6 220,-98.3 228,-101.3 236,-103.2 244,-103.7 252,-102.8 260,-100.6 268,-97.4 276,-93.6 284,-89.6 292,-86.1 300,-83.4 308,-81.9 316,-81.9 324,-83.2 332,-85.7 340,-89.2 348,-93.1 356,-97.0 364,-100.3 372,-102.6 380,-103.7 388,-103.3 396,-101.6 404,-98.7 412,-95.1 420,-91.1 428,-87.4 436,-84.3 444,-82.3 444,-68.3 436,-70.3 428,-73.4 420,-77.1 412,-81.1 404,-84.7 396,-87.6 388,-89.3 380,-89.7 372,-88.6 364,-86.3 356,-83.0 348,-79.1 340,-75.2 332,-71.7 324,-69.2 316,-67.9 308,-67.9 300,-69.4 292,-72.1 284,-75.6 276,-79.6 268,-83.4 260,-86.6 252,-88.8 244,-89.7 236,-89.2 228,-87.3 220,-84.3 212,-80.6 204,-76.6 196,-72.9 188,-70.0 180,-68.2 172,-67.7 164,-68.7 156,-71.0 148,-74.2 140,-78.1 132,-82.0 124,-85.5 116,-88.1 108,-89.5 100,-89.5 92,-88.2 84,-85.5 76,-82.0 68,-78.1 60,-74.3 52,-71.0 44,-68.7 36,-67.7 28,-68.2 20,-70.0 12,-72.9 4,-76.6 -4,-80.6 -12,-84.3Z" fill="#17150F"/><path d="M-12,-70.3 -4,-66.6 4,-62.6 12,-58.9 20,-56.0 28,-54.2 36,-53.7 44,-54.7 52,-57.0 60,-60.3 68,-64.1 76,-68.0 84,-71.5 92,-74.2 100,-75.5 108,-75.5 116,-74.1 124,-71.5 132,-68.0 140,-64.1 148,-60.2 156,-57.0 164,-54.7 172,-53.7 180,-54.2 188,-56.0 196,-58.9 204,-62.6 212,-66.6 220,-70.3 228,-73.3 236,-75.2 244,-75.7 252,-74.8 260,-72.6 268,-69.4 276,-65.6 284,-61.6 292,-58.1 300,-55.4 308,-53.9 316,-53.9 324,-55.2 332,-57.7 340,-61.2 348,-65.1 356,-69.0 364,-72.3 372,-74.6 380,-75.7 388,-75.3 396,-73.6 404,-70.7 412,-67.1 420,-63.1 428,-59.4 436,-56.3 444,-54.3 444,-40.3 436,-42.3 428,-45.4 420,-49.1 412,-53.1 404,-56.7 396,-59.6 388,-61.3 380,-61.7 372,-60.6 364,-58.3 356,-55.0 348,-51.1 340,-47.2 332,-43.7 324,-41.2 316,-39.9 308,-39.9 300,-41.4 292,-44.1 284,-47.6 276,-51.6 268,-55.4 260,-58.6 252,-60.8 244,-61.7 236,-61.2 228,-59.3 220,-56.3 212,-52.6 204,-48.6 196,-44.9 188,-42.0 180,-40.2 172,-39.7 164,-40.7 156,-43.0 148,-46.2 140,-50.1 132,-54.0 124,-57.5 116,-60.1 108,-61.5 100,-61.5 92,-60.2 84,-57.5 76,-54.0 68,-50.1 60,-46.3 52,-43.0 44,-40.7 36,-39.7 28,-40.2 20,-42.0 12,-44.9 4,-48.6 -4,-52.6 -12,-56.3Z" fill="#17150F"/><path d="M-12,-42.3 -4,-38.6 4,-34.6 12,-30.9 20,-28.0 28,-26.2 36,-25.7 44,-26.7 52,-29.0 60,-32.3 68,-36.1 76,-40.0 84,-43.5 92,-46.2 100,-47.5 108,-47.5 116,-46.1 124,-43.5 132,-40.0 140,-36.1 148,-32.2 156,-29.0 164,-26.7 172,-25.7 180,-26.2 188,-28.0 196,-30.9 204,-34.6 212,-38.6 220,-42.3 228,-45.3 236,-47.2 244,-47.7 252,-46.8 260,-44.6 268,-41.4 276,-37.6 284,-33.6 292,-30.1 300,-27.4 308,-25.9 316,-25.9 324,-27.2 332,-29.7 340,-33.2 348,-37.1 356,-41.0 364,-44.3 372,-46.6 380,-47.7 388,-47.3 396,-45.6 404,-42.7 412,-39.1 420,-35.1 428,-31.4 436,-28.3 444,-26.3 444,-12.3 436,-14.3 428,-17.4 420,-21.1 412,-25.1 404,-28.7 396,-31.6 388,-33.3 380,-33.7 372,-32.6 364,-30.3 356,-27.0 348,-23.1 340,-19.2 332,-15.7 324,-13.2 316,-11.9 308,-11.9 300,-13.4 292,-16.1 284,-19.6 276,-23.6 268,-27.4 260,-30.6 252,-32.8 244,-33.7 236,-33.2 228,-31.3 220,-28.3 212,-24.6 204,-20.6 196,-16.9 188,-14.0 180,-12.2 172,-11.7 164,-12.7 156,-15.0 148,-18.2 140,-22.1 132,-26.0 124,-29.5 116,-32.1 108,-33.5 100,-33.5 92,-32.2 84,-29.5 76,-26.0 68,-22.1 60,-18.3 52,-15.0 44,-12.7 36,-11.7 28,-12.2 20,-14.0 12,-16.9 4,-20.6 -4,-24.6 -12,-28.3Z" fill="#17150F"/><path d="M-12,-14.3 -4,-10.6 4,-6.6 12,-2.9 20,0.0 28,1.8 36,2.3 44,1.3 52,-1.0 60,-4.3 68,-8.1 76,-12.0 84,-15.5 92,-18.2 100,-19.5 108,-19.5 116,-18.1 124,-15.5 132,-12.0 140,-8.1 148,-4.2 156,-1.0 164,1.3 172,2.3 180,1.8 188,-0.0 196,-2.9 204,-6.6 212,-10.6 220,-14.3 228,-17.3 236,-19.2 244,-19.7 252,-18.8 260,-16.6 268,-13.4 276,-9.6 284,-5.6 292,-2.1 300,0.6 308,2.1 316,2.1 324,0.8 332,-1.7 340,-5.2 348,-9.1 356,-13.0 364,-16.3 372,-18.6 380,-19.7 388,-19.3 396,-17.6 404,-14.7 412,-11.1 420,-7.1 428,-3.4 436,-0.3 444,1.7 444,15.7 436,13.7 428,10.6 420,6.9 412,2.9 404,-0.7 396,-3.6 388,-5.3 380,-5.7 372,-4.6 364,-2.3 356,1.0 348,4.9 340,8.8 332,12.3 324,14.8 316,16.1 308,16.1 300,14.6 292,11.9 284,8.4 276,4.4 268,0.6 260,-2.6 252,-4.8 244,-5.7 236,-5.2 228,-3.3 220,-0.3 212,3.4 204,7.4 196,11.1 188,14.0 180,15.8 172,16.3 164,15.3 156,13.0 148,9.8 140,5.9 132,2.0 124,-1.5 116,-4.1 108,-5.5 100,-5.5 92,-4.2 84,-1.5 76,2.0 68,5.9 60,9.7 52,13.0 44,15.3 36,16.3 28,15.8 20,14.0 12,11.1 4,7.4 -4,3.4 -12,-0.3Z" fill="#17150F"/><path d="M-12,13.7 -4,17.4 4,21.4 12,25.1 20,28.0 28,29.8 36,30.3 44,29.3 52,27.0 60,23.7 68,19.9 76,16.0 84,12.5 92,9.8 100,8.5 108,8.5 116,9.9 124,12.5 132,16.0 140,19.9 148,23.8 156,27.0 164,29.3 172,30.3 180,29.8 188,28.0 196,25.1 204,21.4 212,17.4 220,13.7 228,10.7 236,8.8 244,8.3 252,9.2 260,11.4 268,14.6 276,18.4 284,22.4 292,25.9 300,28.6 308,30.1 316,30.1 324,28.8 332,26.3 340,22.8 348,18.9 356,15.0 364,11.7 372,9.4 380,8.3 388,8.7 396,10.4 404,13.3 412,16.9 420,20.9 428,24.6 436,27.7 444,29.7 444,43.7 436,41.7 428,38.6 420,34.9 412,30.9 404,27.3 396,24.4 388,22.7 380,22.3 372,23.4 364,25.7 356,29.0 348,32.9 340,36.8 332,40.3 324,42.8 316,44.1 308,44.1 300,42.6 292,39.9 284,36.4 276,32.4 268,28.6 260,25.4 252,23.2 244,22.3 236,22.8 228,24.7 220,27.7 212,31.4 204,35.4 196,39.1 188,42.0 180,43.8 172,44.3 164,43.3 156,41.0 148,37.8 140,33.9 132,30.0 124,26.5 116,23.9 108,22.5 100,22.5 92,23.8 84,26.5 76,30.0 68,33.9 60,37.7 52,41.0 44,43.3 36,44.3 28,43.8 20,42.0 12,39.1 4,35.4 -4,31.4 -12,27.7Z" fill="#17150F"/><path d="M-12,41.7 -4,45.4 4,49.4 12,53.1 20,56.0 28,57.8 36,58.3 44,57.3 52,55.0 60,51.7 68,47.9 76,44.0 84,40.5 92,37.8 100,36.5 108,36.5 116,37.9 124,40.5 132,44.0 140,47.9 148,51.8 156,55.0 164,57.3 172,58.3 180,57.8 188,56.0 196,53.1 204,49.4 212,45.4 220,41.7 228,38.7 236,36.8 244,36.3 252,37.2 260,39.4 268,42.6 276,46.4 284,50.4 292,53.9 300,56.6 308,58.1 316,58.1 324,56.8 332,54.3 340,50.8 348,46.9 356,43.0 364,39.7 372,37.4 380,36.3 388,36.7 396,38.4 404,41.3 412,44.9 420,48.9 428,52.6 436,55.7 444,57.7 444,71.7 436,69.7 428,66.6 420,62.9 412,58.9 404,55.3 396,52.4 388,50.7 380,50.3 372,51.4 364,53.7 356,57.0 348,60.9 340,64.8 332,68.3 324,70.8 316,72.1 308,72.1 300,70.6 292,67.9 284,64.4 276,60.4 268,56.6 260,53.4 252,51.2 244,50.3 236,50.8 228,52.7 220,55.7 212,59.4 204,63.4 196,67.1 188,70.0 180,71.8 172,72.3 164,71.3 156,69.0 148,65.8 140,61.9 132,58.0 124,54.5 116,51.9 108,50.5 100,50.5 92,51.8 84,54.5 76,58.0 68,61.9 60,65.7 52,69.0 44,71.3 36,72.3 28,71.8 20,70.0 12,67.1 4,63.4 -4,59.4 -12,55.7Z" fill="#17150F"/><path d="M-12,69.7 -4,73.4 4,77.4 12,81.1 20,84.0 28,85.8 36,86.3 44,85.3 52,83.0 60,79.7 68,75.9 76,72.0 84,68.5 92,65.8 100,64.5 108,64.5 116,65.9 124,68.5 132,72.0 140,75.9 148,79.8 156,83.0 164,85.3 172,86.3 180,85.8 188,84.0 196,81.1 204,77.4 212,73.4 220,69.7 228,66.7 236,64.8 244,64.3 252,65.2 260,67.4 268,70.6 276,74.4 284,78.4 292,81.9 300,84.6 308,86.1 316,86.1 324,84.8 332,82.3 340,78.8 348,74.9 356,71.0 364,67.7 372,65.4 380,64.3 388,64.7 396,66.4 404,69.3 412,72.9 420,76.9 428,80.6 436,83.7 444,85.7 444,99.7 436,97.7 428,94.6 420,90.9 412,86.9 404,83.3 396,80.4 388,78.7 380,78.3 372,79.4 364,81.7 356,85.0 348,88.9 340,92.8 332,96.3 324,98.8 316,100.1 308,100.1 300,98.6 292,95.9 284,92.4 276,88.4 268,84.6 260,81.4 252,79.2 244,78.3 236,78.8 228,80.7 220,83.7 212,87.4 204,91.4 196,95.1 188,98.0 180,99.8 172,100.3 164,99.3 156,97.0 148,93.8 140,89.9 132,86.0 124,82.5 116,79.9 108,78.5 100,78.5 92,79.8 84,82.5 76,86.0 68,89.9 60,93.7 52,97.0 44,99.3 36,100.3 28,99.8 20,98.0 12,95.1 4,91.4 -4,87.4 -12,83.7Z" fill="#17150F"/><path d="M-12,97.7 -4,101.4 4,105.4 12,109.1 20,112.0 28,113.8 36,114.3 44,113.3 52,111.0 60,107.7 68,103.9 76,100.0 84,96.5 92,93.8 100,92.5 108,92.5 116,93.9 124,96.5 132,100.0 140,103.9 148,107.8 156,111.0 164,113.3 172,114.3 180,113.8 188,112.0 196,109.1 204,105.4 212,101.4 220,97.7 228,94.7 236,92.8 244,92.3 252,93.2 260,95.4 268,98.6 276,102.4 284,106.4 292,109.9 300,112.6 308,114.1 316,114.1 324,112.8 332,110.3 340,106.8 348,102.9 356,99.0 364,95.7 372,93.4 380,92.3 388,92.7 396,94.4 404,97.3 412,100.9 420,104.9 428,108.6 436,111.7 444,113.7 444,127.7 436,125.7 428,122.6 420,118.9 412,114.9 404,111.3 396,108.4 388,106.7 380,106.3 372,107.4 364,109.7 356,113.0 348,116.9 340,120.8 332,124.3 324,126.8 316,128.1 308,128.1 300,126.6 292,123.9 284,120.4 276,116.4 268,112.6 260,109.4 252,107.2 244,106.3 236,106.8 228,108.7 220,111.7 212,115.4 204,119.4 196,123.1 188,126.0 180,127.8 172,128.3 164,127.3 156,125.0 148,121.8 140,117.9 132,114.0 124,110.5 116,107.9 108,106.5 100,106.5 92,107.8 84,110.5 76,114.0 68,117.9 60,121.7 52,125.0 44,127.3 36,128.3 28,127.8 20,126.0 12,123.1 4,119.4 -4,115.4 -12,111.7Z" fill="#17150F"/><path d="M-12,125.7 -4,129.4 4,133.4 12,137.1 20,140.0 28,141.8 36,142.3 44,141.3 52,139.0 60,135.7 68,131.9 76,128.0 84,124.5 92,121.8 100,120.5 108,120.5 116,121.9 124,124.5 132,128.0 140,131.9 148,135.8 156,139.0 164,141.3 172,142.3 180,141.8 188,140.0 196,137.1 204,133.4 212,129.4 220,125.7 228,122.7 236,120.8 244,120.3 252,121.2 260,123.4 268,126.6 276,130.4 284,134.4 292,137.9 300,140.6 308,142.1 316,142.1 324,140.8 332,138.3 340,134.8 348,130.9 356,127.0 364,123.7 372,121.4 380,120.3 388,120.7 396,122.4 404,125.3 412,128.9 420,132.9 428,136.6 436,139.7 444,141.7 444,155.7 436,153.7 428,150.6 420,146.9 412,142.9 404,139.3 396,136.4 388,134.7 380,134.3 372,135.4 364,137.7 356,141.0 348,144.9 340,148.8 332,152.3 324,154.8 316,156.1 308,156.1 300,154.6 292,151.9 284,148.4 276,144.4 268,140.6 260,137.4 252,135.2 244,134.3 236,134.8 228,136.7 220,139.7 212,143.4 204,147.4 196,151.1 188,154.0 180,155.8 172,156.3 164,155.3 156,153.0 148,149.8 140,145.9 132,142.0 124,138.5 116,135.9 108,134.5 100,134.5 92,135.8 84,138.5 76,142.0 68,145.9 60,149.7 52,153.0 44,155.3 36,156.3 28,155.8 20,154.0 12,151.1 4,147.4 -4,143.4 -12,139.7Z" fill="#17150F"/><path d="M-12,153.7 -4,157.4 4,161.4 12,165.1 20,168.0 28,169.8 36,170.3 44,169.3 52,167.0 60,163.7 68,159.9 76,156.0 84,152.5 92,149.8 100,148.5 108,148.5 116,149.9 124,152.5 132,156.0 140,159.9 148,163.8 156,167.0 164,169.3 172,170.3 180,169.8 188,168.0 196,165.1 204,161.4 212,157.4 220,153.7 228,150.7 236,148.8 244,148.3 252,149.2 260,151.4 268,154.6 276,158.4 284,162.4 292,165.9 300,168.6 308,170.1 316,170.1 324,168.8 332,166.3 340,162.8 348,158.9 356,155.0 364,151.7 372,149.4 380,148.3 388,148.7 396,150.4 404,153.3 412,156.9 420,160.9 428,164.6 436,167.7 444,169.7 444,183.7 436,181.7 428,178.6 420,174.9 412,170.9 404,167.3 396,164.4 388,162.7 380,162.3 372,163.4 364,165.7 356,169.0 348,172.9 340,176.8 332,180.3 324,182.8 316,184.1 308,184.1 300,182.6 292,179.9 284,176.4 276,172.4 268,168.6 260,165.4 252,163.2 244,162.3 236,162.8 228,164.7 220,167.7 212,171.4 204,175.4 196,179.1 188,182.0 180,183.8 172,184.3 164,183.3 156,181.0 148,177.8 140,173.9 132,170.0 124,166.5 116,163.9 108,162.5 100,162.5 92,163.8 84,166.5 76,170.0 68,173.9 60,177.7 52,181.0 44,183.3 36,184.3 28,183.8 20,182.0 12,179.1 4,175.4 -4,171.4 -12,167.7Z" fill="#17150F"/><path d="M-12,181.7 -4,185.4 4,189.4 12,193.1 20,196.0 28,197.8 36,198.3 44,197.3 52,195.0 60,191.7 68,187.9 76,184.0 84,180.5 92,177.8 100,176.5 108,176.5 116,177.9 124,180.5 132,184.0 140,187.9 148,191.8 156,195.0 164,197.3 172,198.3 180,197.8 188,196.0 196,193.1 204,189.4 212,185.4 220,181.7 228,178.7 236,176.8 244,176.3 252,177.2 260,179.4 268,182.6 276,186.4 284,190.4 292,193.9 300,196.6 308,198.1 316,198.1 324,196.8 332,194.3 340,190.8 348,186.9 356,183.0 364,179.7 372,177.4 380,176.3 388,176.7 396,178.4 404,181.3 412,184.9 420,188.9 428,192.6 436,195.7 444,197.7 444,211.7 436,209.7 428,206.6 420,202.9 412,198.9 404,195.3 396,192.4 388,190.7 380,190.3 372,191.4 364,193.7 356,197.0 348,200.9 340,204.8 332,208.3 324,210.8 316,212.1 308,212.1 300,210.6 292,207.9 284,204.4 276,200.4 268,196.6 260,193.4 252,191.2 244,190.3 236,190.8 228,192.7 220,195.7 212,199.4 204,203.4 196,207.1 188,210.0 180,211.8 172,212.3 164,211.3 156,209.0 148,205.8 140,201.9 132,198.0 124,194.5 116,191.9 108,190.5 100,190.5 92,191.8 84,194.5 76,198.0 68,201.9 60,205.7 52,209.0 44,211.3 36,212.3 28,211.8 20,210.0 12,207.1 4,203.4 -4,199.4 -12,195.7Z" fill="#17150F"/><path d="M-12,209.7 -4,213.4 4,217.4 12,221.1 20,224.0 28,225.8 36,226.3 44,225.3 52,223.0 60,219.7 68,215.9 76,212.0 84,208.5 92,205.8 100,204.5 108,204.5 116,205.9 124,208.5 132,212.0 140,215.9 148,219.8 156,223.0 164,225.3 172,226.3 180,225.8 188,224.0 196,221.1 204,217.4 212,213.4 220,209.7 228,206.7 236,204.8 244,204.3 252,205.2 260,207.4 268,210.6 276,214.4 284,218.4 292,221.9 300,224.6 308,226.1 316,226.1 324,224.8 332,222.3 340,218.8 348,214.9 356,211.0 364,207.7 372,205.4 380,204.3 388,204.7 396,206.4 404,209.3 412,212.9 420,216.9 428,220.6 436,223.7 444,225.7 444,239.7 436,237.7 428,234.6 420,230.9 412,226.9 404,223.3 396,220.4 388,218.7 380,218.3 372,219.4 364,221.7 356,225.0 348,228.9 340,232.8 332,236.3 324,238.8 316,240.1 308,240.1 300,238.6 292,235.9 284,232.4 276,228.4 268,224.6 260,221.4 252,219.2 244,218.3 236,218.8 228,220.7 220,223.7 212,227.4 204,231.4 196,235.1 188,238.0 180,239.8 172,240.3 164,239.3 156,237.0 148,233.8 140,229.9 132,226.0 124,222.5 116,219.9 108,218.5 100,218.5 92,219.8 84,222.5 76,226.0 68,229.9 60,233.7 52,237.0 44,239.3 36,240.3 28,239.8 20,238.0 12,235.1 4,231.4 -4,227.4 -12,223.7Z" fill="#17150F"/><path d="M-12,237.7 -4,241.4 4,245.4 12,249.1 20,252.0 28,253.8 36,254.3 44,253.3 52,251.0 60,247.7 68,243.9 76,240.0 84,236.5 92,233.8 100,232.5 108,232.5 116,233.9 124,236.5 132,240.0 140,243.9 148,247.8 156,251.0 164,253.3 172,254.3 180,253.8 188,252.0 196,249.1 204,245.4 212,241.4 220,237.7 228,234.7 236,232.8 244,232.3 252,233.2 260,235.4 268,238.6 276,242.4 284,246.4 292,249.9 300,252.6 308,254.1 316,254.1 324,252.8 332,250.3 340,246.8 348,242.9 356,239.0 364,235.7 372,233.4 380,232.3 388,232.7 396,234.4 404,237.3 412,240.9 420,244.9 428,248.6 436,251.7 444,253.7 444,267.7 436,265.7 428,262.6 420,258.9 412,254.9 404,251.3 396,248.4 388,246.7 380,246.3 372,247.4 364,249.7 356,253.0 348,256.9 340,260.8 332,264.3 324,266.8 316,268.1 308,268.1 300,266.6 292,263.9 284,260.4 276,256.4 268,252.6 260,249.4 252,247.2 244,246.3 236,246.8 228,248.7 220,251.7 212,255.4 204,259.4 196,263.1 188,266.0 180,267.8 172,268.3 164,267.3 156,265.0 148,261.8 140,257.9 132,254.0 124,250.5 116,247.9 108,246.5 100,246.5 92,247.8 84,250.5 76,254.0 68,257.9 60,261.7 52,265.0 44,267.3 36,268.3 28,267.8 20,266.0 12,263.1 4,259.4 -4,255.4 -12,251.7Z" fill="#17150F"/><path d="M-12,265.7 -4,269.4 4,273.4 12,277.1 20,280.0 28,281.8 36,282.3 44,281.3 52,279.0 60,275.7 68,271.9 76,268.0 84,264.5 92,261.8 100,260.5 108,260.5 116,261.9 124,264.5 132,268.0 140,271.9 148,275.8 156,279.0 164,281.3 172,282.3 180,281.8 188,280.0 196,277.1 204,273.4 212,269.4 220,265.7 228,262.7 236,260.8 244,260.3 252,261.2 260,263.4 268,266.6 276,270.4 284,274.4 292,277.9 300,280.6 308,282.1 316,282.1 324,280.8 332,278.3 340,274.8 348,270.9 356,267.0 364,263.7 372,261.4 380,260.3 388,260.7 396,262.4 404,265.3 412,268.9 420,272.9 428,276.6 436,279.7 444,281.7 444,295.7 436,293.7 428,290.6 420,286.9 412,282.9 404,279.3 396,276.4 388,274.7 380,274.3 372,275.4 364,277.7 356,281.0 348,284.9 340,288.8 332,292.3 324,294.8 316,296.1 308,296.1 300,294.6 292,291.9 284,288.4 276,284.4 268,280.6 260,277.4 252,275.2 244,274.3 236,274.8 228,276.7 220,279.7 212,283.4 204,287.4 196,291.1 188,294.0 180,295.8 172,296.3 164,295.3 156,293.0 148,289.8 140,285.9 132,282.0 124,278.5 116,275.9 108,274.5 100,274.5 92,275.8 84,278.5 76,282.0 68,285.9 60,289.7 52,293.0 44,295.3 36,296.3 28,295.8 20,294.0 12,291.1 4,287.4 -4,283.4 -12,279.7Z" fill="#17150F"/><path d="M-12,293.7 -4,297.4 4,301.4 12,305.1 20,308.0 28,309.8 36,310.3 44,309.3 52,307.0 60,303.7 68,299.9 76,296.0 84,292.5 92,289.8 100,288.5 108,288.5 116,289.9 124,292.5 132,296.0 140,299.9 148,303.8 156,307.0 164,309.3 172,310.3 180,309.8 188,308.0 196,305.1 204,301.4 212,297.4 220,293.7 228,290.7 236,288.8 244,288.3 252,289.2 260,291.4 268,294.6 276,298.4 284,302.4 292,305.9 300,308.6 308,310.1 316,310.1 324,308.8 332,306.3 340,302.8 348,298.9 356,295.0 364,291.7 372,289.4 380,288.3 388,288.7 396,290.4 404,293.3 412,296.9 420,300.9 428,304.6 436,307.7 444,309.7 444,323.7 436,321.7 428,318.6 420,314.9 412,310.9 404,307.3 396,304.4 388,302.7 380,302.3 372,303.4 364,305.7 356,309.0 348,312.9 340,316.8 332,320.3 324,322.8 316,324.1 308,324.1 300,322.6 292,319.9 284,316.4 276,312.4 268,308.6 260,305.4 252,303.2 244,302.3 236,302.8 228,304.7 220,307.7 212,311.4 204,315.4 196,319.1 188,322.0 180,323.8 172,324.3 164,323.3 156,321.0 148,317.8 140,313.9 132,310.0 124,306.5 116,303.9 108,302.5 100,302.5 92,303.8 84,306.5 76,310.0 68,313.9 60,317.7 52,321.0 44,323.3 36,324.3 28,323.8 20,322.0 12,319.1 4,315.4 -4,311.4 -12,307.7Z" fill="#17150F"/></g>
    <circle cx="189.1" cy="87.8" r="26.8" fill="#EFE8DA"/>
    <circle cx="189.1" cy="87.8" r="19.8" fill="#D8432A"/>
  </g>
  <rect x="24" y="24" width="384" height="110" fill="none" stroke="#17150F" stroke-width="1"/>
  <text x="24" y="170" font-family="ui-monospace,SFMono-Regular,'SF Mono',Menlo,Consolas,'DejaVu Sans Mono','Liberation Mono',monospace" font-size="10.5" fill="#D8432A" letter-spacing="2">OBRA 05</text>
  <text x="24" y="204" font-family="Georgia,'Times New Roman','Liberation Serif',serif" font-size="23" font-style="italic" fill="#17150F" letter-spacing="-0.6">FastAPI-Template</text>
  <text x="24" y="228" font-family="ui-monospace,SFMono-Regular,'SF Mono',Menlo,Consolas,'DejaVu Sans Mono','Liberation Mono',monospace" font-size="10.5" fill="#6A6255">base de API para produção</text>
  <text x="24" y="260" font-family="Georgia,'Times New Roman','Liberation Serif',serif" font-size="14" fill="#17150F">Organização modular, configuração por ambiente e</text><text x="24" y="280" font-family="Georgia,'Times New Roman','Liberation Serif',serif" font-size="14" fill="#17150F">docker-compose pronto pra subir.</text>
  <line x1="24" y1="322" x2="408" y2="322" stroke="#17150F" stroke-width="0.8"/>
  <text x="24" y="344" font-family="ui-monospace,SFMono-Regular,'SF Mono',Menlo,Consolas,'DejaVu Sans Mono','Liberation Mono',monospace" font-size="10" fill="#6A6255" letter-spacing="0.5">técnica mista · FastAPI, Docker, PostgreSQL</text>
</svg>