<svg xmlns="http://www.w3.org/2000/svg" width="100%" viewBox="0 0 432 216"
     preserveAspectRatio="xMidYMid meet" role="img" aria-label="PRISMA: Projetos acadêmicos importados do SIE. Auth institucional via Google, access e refresh token em Redis e recomendação semântica sobre a busca.">
  <defs><pattern id="scan" width="4" height="4" patternUnits="userSpaceOnUse">
      <rect width="4" height="1" fill="#000" opacity="0.35"/></pattern>
    <filter id="grain" x="0" y="0" width="100%" height="100%">
      <feTurbulence type="fractalNoise" baseFrequency="0.85" numOctaves="2" seed="3"/>
      <feColorMatrix values="0 0 0 0 1  0 0 0 0 1  0 0 0 0 1  0 0 0 0.06 0"/>
    </filter></defs>
  <rect width="432" height="216" fill="#0A0A0A"/>
  <rect x="0.5" y="0.5" width="431" height="215" fill="none" stroke="#2A2825"/>
  <text x="28" y="34" font-family="ui-monospace,SFMono-Regular,'SF Mono',Menlo,Consolas,'DejaVu Sans Mono','Liberation Mono',monospace" font-size="10.5" fill="#8C877C">node://pablozr/PRISMA</text>
  <path d="M282,55.8 L288,45.9 L294,45.1 L300,41.8 L306,43.1 L312,45.5 L318,42.5 L324,42.0 L330,45.0 L336,46.0 L342,45.7 L348,42.0 L354,42.4 L360,44.5 L366,45.7 L372,43.6 L378,41.6 L384,43.1 L390,45.9 L396,41.7 L402,41.9" fill="none" stroke="#8C877C" stroke-width="1" opacity="0.7"/><circle r="3" fill="#C8102E"><animateMotion dur="5s" repeatCount="indefinite" path="M282,55.8 L288,45.9 L294,45.1 L300,41.8 L306,43.1 L312,45.5 L318,42.5 L324,42.0 L330,45.0 L336,46.0 L342,45.7 L348,42.0 L354,42.4 L360,44.5 L366,45.7 L372,43.6 L378,41.6 L384,43.1 L390,45.9 L396,41.7 L402,41.9"/></circle>
  <text x="26" y="76" font-family="'Helvetica Neue',Helvetica,Arial,'Liberation Sans',sans-serif" font-size="22" fill="#E6E1D3" letter-spacing="1">PRISMA</text>
  <text x="28" y="96" font-family="ui-monospace,SFMono-Regular,'SF Mono',Menlo,Consolas,'DejaVu Sans Mono','Liberation Mono',monospace" font-size="11" fill="#C8102E">plataforma acadêmica da UNIRIO</text>
  <text x="28" y="118" font-family="'Helvetica Neue',Helvetica,Arial,'Liberation Sans',sans-serif" font-size="13.5" fill="#E6E1D3">Projetos acadêmicos importados do SIE. Auth</text><text x="28" y="138" font-family="'Helvetica Neue',Helvetica,Arial,'Liberation Sans',sans-serif" font-size="13.5" fill="#E6E1D3">institucional via Google, access e refresh token em</text><text x="28" y="158" font-family="'Helvetica Neue',Helvetica,Arial,'Liberation Sans',sans-serif" font-size="13.5" fill="#E6E1D3">Redis e recomendação semântica sobre a busca.</text>
  <text x="28" y="194" font-family="ui-monospace,SFMono-Regular,'SF Mono',Menlo,Consolas,'DejaVu Sans Mono','Liberation Mono',monospace" font-size="10.5" fill="#8C877C" xml:space="preserve">[python]  [fastapi]  [redis]  [rag]</text>
  <rect width="432" height="216" fill="url(#scan)"/>
</svg>