<svg xmlns="http://www.w3.org/2000/svg" width="100%" viewBox="0 0 880 190"
     preserveAspectRatio="xMidYMid meet" role="img" aria-label="close the world, open the nExt">
  <defs><pattern id="scan" width="4" height="4" patternUnits="userSpaceOnUse">
      <rect width="4" height="1" fill="#000" opacity="0.35"/></pattern>
    <filter id="grain" x="0" y="0" width="100%" height="100%">
      <feTurbulence type="fractalNoise" baseFrequency="0.85" numOctaves="2" seed="3"/>
      <feColorMatrix values="0 0 0 0 1  0 0 0 0 1  0 0 0 0 1  0 0 0 0.06 0"/>
    </filter><pattern id="d1" width="12" height="12" patternUnits="userSpaceOnUse"><g fill="#E6E1D3"><rect x="0" y="0" width="3" height="3"/></g></pattern><pattern id="d2" width="12" height="12" patternUnits="userSpaceOnUse"><g fill="#E6E1D3"><rect x="0" y="0" width="3" height="3"/><rect x="6" y="6" width="3" height="3"/></g></pattern><pattern id="d3" width="12" height="12" patternUnits="userSpaceOnUse"><g fill="#E6E1D3"><rect x="0" y="0" width="3" height="3"/><rect x="6" y="0" width="3" height="3"/><rect x="6" y="6" width="3" height="3"/></g></pattern><pattern id="d4" width="12" height="12" patternUnits="userSpaceOnUse"><g fill="#E6E1D3"><rect x="0" y="0" width="3" height="3"/><rect x="6" y="0" width="3" height="3"/><rect x="0" y="6" width="3" height="3"/><rect x="6" y="6" width="3" height="3"/></g></pattern><pattern id="d5" width="12" height="12" patternUnits="userSpaceOnUse"><g fill="#E6E1D3"><rect x="0" y="0" width="3" height="3"/><rect x="6" y="0" width="3" height="3"/><rect x="3" y="3" width="3" height="3"/><rect x="0" y="6" width="3" height="3"/><rect x="6" y="6" width="3" height="3"/></g></pattern><pattern id="d6" width="12" height="12" patternUnits="userSpaceOnUse"><g fill="#E6E1D3"><rect x="0" y="0" width="3" height="3"/><rect x="6" y="0" width="3" height="3"/><rect x="3" y="3" width="3" height="3"/><rect x="0" y="6" width="3" height="3"/><rect x="6" y="6" width="3" height="3"/><rect x="9" y="9" width="3" height="3"/></g></pattern><pattern id="d7" width="12" height="12" patternUnits="userSpaceOnUse"><g fill="#E6E1D3"><rect x="0" y="0" width="3" height="3"/><rect x="6" y="0" width="3" height="3"/><rect x="3" y="3" width="3" height="3"/><rect x="9" y="3" width="3" height="3"/><rect x="0" y="6" width="3" height="3"/><rect x="6" y="6" width="3" height="3"/><rect x="9" y="9" width="3" height="3"/></g></pattern><pattern id="d8" width="12" height="12" patternUnits="userSpaceOnUse"><g fill="#E6E1D3"><rect x="0" y="0" width="3" height="3"/><rect x="6" y="0" width="3" height="3"/><rect x="3" y="3" width="3" height="3"/><rect x="9" y="3" width="3" height="3"/><rect x="0" y="6" width="3" height="3"/><rect x="6" y="6" width="3" height="3"/><rect x="3" y="9" width="3" height="3"/><rect x="9" y="9" width="3" height="3"/></g></pattern><pattern id="d9" width="12" height="12" patternUnits="userSpaceOnUse"><g fill="#E6E1D3"><rect x="0" y="0" width="3" height="3"/><rect x="3" y="0" width="3" height="3"/><rect x="6" y="0" width="3" height="3"/><rect x="3" y="3" width="3" height="3"/><rect x="9" y="3" width="3" height="3"/><rect x="0" y="6" width="3" height="3"/><rect x="6" y="6" width="3" height="3"/><rect x="3" y="9" width="3" height="3"/><rect x="9" y="9" width="3" height="3"/></g></pattern><pattern id="d10" width="12" height="12" patternUnits="userSpaceOnUse"><g fill="#E6E1D3"><rect x="0" y="0" width="3" height="3"/><rect x="3" y="0" width="3" height="3"/><rect x="6" y="0" width="3" height="3"/><rect x="3" y="3" width="3" height="3"/><rect x="9" y="3" width="3" height="3"/><rect x="0" y="6" width="3" height="3"/><rect x="6" y="6" width="3" height="3"/><rect x="9" y="6" width="3" height="3"/><rect x="3" y="9" width="3" height="3"/><rect x="9" y="9" width="3" height="3"/></g></pattern><pattern id="d11" width="12" height="12" patternUnits="userSpaceOnUse"><g fill="#E6E1D3"><rect x="0" y="0" width="3" height="3"/><rect x="3" y="0" width="3" height="3"/><rect x="6" y="0" width="3" height="3"/><rect x="9" y="0" width="3" height="3"/><rect x="3" y="3" width="3" height="3"/><rect x="9" y="3" width="3" height="3"/><rect x="0" y="6" width="3" height="3"/><rect x="6" y="6" width="3" height="3"/><rect x="9" y="6" width="3" height="3"/><rect x="3" y="9" width="3" height="3"/><rect x="9" y="9" width="3" height="3"/></g></pattern></defs>
  <rect width="880" height="190" fill="#0A0A0A"/>
  
  <rect x="0" y="0" width="880" height="10" fill="url(#d11)"/><rect x="0" y="10" width="880" height="10" fill="url(#d10)"/><rect x="0" y="20" width="880" height="10" fill="url(#d9)"/><rect x="0" y="30" width="880" height="10" fill="url(#d8)"/><rect x="0" y="40" width="880" height="10" fill="url(#d8)"/><rect x="0" y="50" width="880" height="10" fill="url(#d7)"/><rect x="0" y="60" width="880" height="10" fill="url(#d6)"/><rect x="0" y="70" width="880" height="10" fill="url(#d5)"/><rect x="0" y="80" width="880" height="10" fill="url(#d4)"/><rect x="0" y="90" width="880" height="10" fill="url(#d3)"/><rect x="0" y="100" width="880" height="10" fill="url(#d3)"/><rect x="0" y="110" width="880" height="10" fill="url(#d2)"/><rect x="0" y="120" width="880" height="10" fill="url(#d1)"/>
  <path d="M-30.0 40.0 Q44.0 77.3 118.0 31.0" fill="none" stroke="#0A0A0A" stroke-width="1.1"/><path d="M118.0 31.0 Q310.6 83.5 503.2 52.4" fill="none" stroke="#0A0A0A" stroke-width="1.1"/><path d="M503.2 52.4 Q644.8 101.4 786.4 66.8" fill="none" stroke="#0A0A0A" stroke-width="1.1"/><path d="M786.4 66.8 Q832.2 113.2 878.0 76.0" fill="none" stroke="#0A0A0A" stroke-width="1.1"/><path d="M10.0 40.0 Q86.0 77.3 162.0 31.0" fill="none" stroke="#0A0A0A" stroke-width="1.1"/><path d="M162.0 31.0 Q349.4 83.5 536.8 52.4" fill="none" stroke="#0A0A0A" stroke-width="1.1"/><path d="M536.8 52.4 Q675.2 101.4 813.6 66.8" fill="none" stroke="#0A0A0A" stroke-width="1.1"/><path d="M813.6 66.8 Q857.8 113.2 902.0 76.0" fill="none" stroke="#0A0A0A" stroke-width="1.1"/><path d="M-25.0 53.0 Q49.2 91.0 123.5 45.3" fill="none" stroke="#0A0A0A" stroke-width="1.1"/><path d="M123.5 45.3 Q315.4 96.1 507.4 63.3" fill="none" stroke="#0A0A0A" stroke-width="1.1"/><path d="M507.4 63.3 Q648.6 111.3 789.8 75.6" fill="none" stroke="#0A0A0A" stroke-width="1.1"/><path d="M789.8 75.6 Q835.4 121.5 881.0 83.8" fill="none" stroke="#0A0A0A" stroke-width="1.1"/><path d="M5.0 53.0 Q80.8 91.0 156.5 45.3" fill="none" stroke="#0A0A0A" stroke-width="1.1"/><path d="M156.5 45.3 Q344.6 96.1 532.6 63.3" fill="none" stroke="#0A0A0A" stroke-width="1.1"/><path d="M532.6 63.3 Q671.4 111.3 810.2 75.6" fill="none" stroke="#0A0A0A" stroke-width="1.1"/><path d="M810.2 75.6 Q854.6 121.5 899.0 83.8" fill="none" stroke="#0A0A0A" stroke-width="1.1"/>
  <g fill="#0A0A0A"><path d="M138.3 20 L141.7 20 L142.5 190 L137.5 190 Z"/><rect x="114.7" y="29.9" width="50.6" height="2.8"/><rect x="116.9" y="26.0" width="2.2" height="3.9"/><rect x="129.0" y="26.0" width="2.2" height="3.9"/><rect x="148.8" y="26.0" width="2.2" height="3.9"/><rect x="160.9" y="26.0" width="2.2" height="3.9"/><rect x="120.8" y="44.2" width="38.5" height="2.8"/><rect x="123.0" y="40.4" width="2.2" height="3.9"/><rect x="131.7" y="40.4" width="2.2" height="3.9"/><rect x="146.1" y="40.4" width="2.2" height="3.9"/><rect x="154.8" y="40.4" width="2.2" height="3.9"/><rect x="133.9" y="86.0" width="12.1" height="16.5"/></g><path d="M123.5 32.6 L140.0 53.0 L156.5 32.6" fill="none" stroke="#0A0A0A" stroke-width="1.1"/><g fill="#0A0A0A"><path d="M518.7 44 L521.3 44 L521.9 190 L518.1 190 Z"/><rect x="500.7" y="51.6" width="38.6" height="2.1"/><rect x="502.4" y="48.6" width="1.7" height="2.9"/><rect x="511.6" y="48.6" width="1.7" height="2.9"/><rect x="526.7" y="48.6" width="1.7" height="2.9"/><rect x="536.0" y="48.6" width="1.7" height="2.9"/><rect x="505.3" y="62.5" width="29.4" height="2.1"/><rect x="507.0" y="59.5" width="1.7" height="2.9"/><rect x="513.7" y="59.5" width="1.7" height="2.9"/><rect x="524.6" y="59.5" width="1.7" height="2.9"/><rect x="531.3" y="59.5" width="1.7" height="2.9"/><rect x="515.4" y="94.4" width="9.2" height="12.6"/></g><path d="M507.4 53.7 L520.0 69.2 L532.6 53.7" fill="none" stroke="#0A0A0A" stroke-width="0.8"/><g fill="#0A0A0A"><path d="M798.9 60 L801.1 60 L801.5 190 L798.5 190 Z"/><rect x="784.4" y="66.1" width="31.3" height="1.7"/><rect x="785.7" y="63.7" width="1.4" height="2.4"/><rect x="793.2" y="63.7" width="1.4" height="2.4"/><rect x="805.4" y="63.7" width="1.4" height="2.4"/><rect x="812.9" y="63.7" width="1.4" height="2.4"/><rect x="788.1" y="75.0" width="23.8" height="1.7"/><rect x="789.5" y="72.6" width="1.4" height="2.4"/><rect x="794.9" y="72.6" width="1.4" height="2.4"/><rect x="803.8" y="72.6" width="1.4" height="2.4"/><rect x="809.2" y="72.6" width="1.4" height="2.4"/><rect x="796.3" y="100.8" width="7.5" height="10.2"/></g><path d="M789.8 67.8 L800.0 80.4 L810.2 67.8" fill="none" stroke="#0A0A0A" stroke-width="0.7"/>
  <text x="40" y="170" font-family="ui-monospace,SFMono-Regular,'SF Mono',Menlo,Consolas,'DejaVu Sans Mono','Liberation Mono',monospace" font-size="12" fill="#E6E1D3" letter-spacing="2">close the world, open the nExt</text>
  <text x="840" y="170" font-family="ui-monospace,SFMono-Regular,'SF Mono',Menlo,Consolas,'DejaVu Sans Mono','Liberation Mono',monospace" font-size="12" fill="#8C877C" letter-spacing="2" text-anchor="end">txEn eht nepo ,dlrow eht esolc</text>
  <rect x="0" y="-40" width="880" height="40" fill="#E6E1D3" opacity="0.035">
    <animate attributeName="y" from="-40" to="190" dur="7s" repeatCount="indefinite"/>
  </rect>
  <rect width="880" height="190" fill="url(#scan)"/>
  <rect width="880" height="190" filter="url(#grain)"/>
</svg>